<svg width="47" height="47" viewBox="0 0 47 47" fill="none" xmlns="http://www.w3.org/2000/svg">
<path opacity="0.203892" fill-rule="evenodd" clip-rule="evenodd" d="M23.5 47C36.4787 47 47 36.4787 47 23.5C47 10.5213 36.4787 0 23.5 0C10.5213 0 0 10.5213 0 23.5C0 36.4787 10.5213 47 23.5 47Z" fill="#FD5E5E"/>
<path fill-rule="evenodd" clip-rule="evenodd" d="M30.6989 19.5728L23.7566 26.515L21.3114 24.0768C21.1801 23.9453 21.0019 23.8713 20.816 23.8713C20.6302 23.8713 20.4519 23.9453 20.3207 24.0768C20.0466 24.3509 20.0466 24.7935 20.3207 25.0676L23.2578 28.0047C23.5318 28.2787 23.9745 28.2787 24.2485 28.0047L31.6896 20.5706C31.9637 20.2966 31.9637 19.8539 31.6896 19.5798H31.6826C31.4156 19.2988 30.9729 19.2988 30.6989 19.5728ZM27.7196 19.5798C27.5883 19.4483 27.4101 19.3743 27.2242 19.3743C27.0384 19.3743 26.8602 19.4483 26.7289 19.5798L22.7659 23.5428L23.7566 24.5336L27.7196 20.5636C27.9866 20.2966 27.9866 19.8469 27.7196 19.5798ZM19.2878 28.0117L16.3507 25.0746C16.0766 24.8006 16.0766 24.3509 16.3507 24.0768C16.4819 23.9453 16.6602 23.8713 16.846 23.8713C17.0319 23.8713 17.2101 23.9453 17.3414 24.0768L20.7704 27.5198L20.2785 28.0117C20.0045 28.2857 19.5618 28.2857 19.2878 28.0117Z" fill="#FD5E5E"/>
<mask id="mask0" mask-type="alpha" maskUnits="userSpaceOnUse" x="16" y="19" width="16" height="10">
<path fill-rule="evenodd" clip-rule="evenodd" d="M30.6989 19.5728L23.7566 26.515L21.3114 24.0768C21.1801 23.9453 21.0019 23.8713 20.816 23.8713C20.6302 23.8713 20.4519 23.9453 20.3207 24.0768C20.0466 24.3509 20.0466 24.7935 20.3207 25.0676L23.2578 28.0047C23.5318 28.2787 23.9745 28.2787 24.2485 28.0047L31.6896 20.5706C31.9637 20.2966 31.9637 19.8539 31.6896 19.5798H31.6826C31.4156 19.2988 30.9729 19.2988 30.6989 19.5728ZM27.7196 19.5798C27.5883 19.4483 27.4101 19.3743 27.2242 19.3743C27.0384 19.3743 26.8602 19.4483 26.7289 19.5798L22.7659 23.5428L23.7566 24.5336L27.7196 20.5636C27.9866 20.2966 27.9866 19.8469 27.7196 19.5798ZM19.2878 28.0117L16.3507 25.0746C16.0766 24.8006 16.0766 24.3509 16.3507 24.0768C16.4819 23.9453 16.6602 23.8713 16.846 23.8713C17.0319 23.8713 17.2101 23.9453 17.3414 24.0768L20.7704 27.5198L20.2785 28.0117C20.0045 28.2857 19.5618 28.2857 19.2878 28.0117Z" fill="white"/>
</mask>
<g mask="url(#mask0)">
</g>
</svg>
