<svg width="47" height="47" viewBox="0 0 47 47" fill="none" xmlns="http://www.w3.org/2000/svg">
<path fill-rule="evenodd" clip-rule="evenodd" d="M23.5 47C36.4787 47 47 36.4787 47 23.5C47 10.5213 36.4787 0 23.5 0C10.5213 0 0 10.5213 0 23.5C0 36.4787 10.5213 47 23.5 47Z" fill="#7796FE"/>
<path fill-rule="evenodd" clip-rule="evenodd" d="M31.1213 19.1622C31.4625 18.8209 31.4625 18.2697 31.1213 17.9284L29.0738 15.8809C28.9103 15.7171 28.6883 15.625 28.4569 15.625C28.2254 15.625 28.0035 15.7171 27.84 15.8809L26.2388 17.4822L29.52 20.7634L31.1213 19.1622ZM15.625 28.2797V30.9397C15.625 31.1847 15.8175 31.3772 16.0625 31.3772H18.7225C18.8363 31.3772 18.95 31.3334 19.0287 31.2459L28.5837 21.6997L25.3025 18.4184L15.7562 27.9647C15.6687 28.0522 15.625 28.1572 15.625 28.2797ZM26.1075 21.6975L25.3025 20.8925L17.375 28.82V29.625H18.18L26.1075 21.6975Z" fill="white"/>
<mask id="mask0" mask-type="alpha" maskUnits="userSpaceOnUse" x="15" y="15" width="17" height="17">
<path fill-rule="evenodd" clip-rule="evenodd" d="M31.1213 19.1622C31.4625 18.8209 31.4625 18.2697 31.1213 17.9284L29.0738 15.8809C28.9103 15.7171 28.6883 15.625 28.4569 15.625C28.2254 15.625 28.0035 15.7171 27.84 15.8809L26.2388 17.4822L29.52 20.7634L31.1213 19.1622ZM15.625 28.2797V30.9397C15.625 31.1847 15.8175 31.3772 16.0625 31.3772H18.7225C18.8363 31.3772 18.95 31.3334 19.0287 31.2459L28.5837 21.6997L25.3025 18.4184L15.7562 27.9647C15.6687 28.0522 15.625 28.1572 15.625 28.2797ZM26.1075 21.6975L25.3025 20.8925L17.375 28.82V29.625H18.18L26.1075 21.6975Z" fill="white"/>
</mask>
<g mask="url(#mask0)">
</g>
</svg>
