<svg width="16" height="14" viewBox="0 0 16 14" fill="none" xmlns="http://www.w3.org/2000/svg">
<path fill-rule="evenodd" clip-rule="evenodd" d="M9.211 0.278859C10.5075 0.0239481 11.6718 0.20887 12.6524 0.682129C12.7059 0.707935 12.7575 0.733953 12.8074 0.760075L13.7683 0.371208C14.7579 -0.0292811 15.8038 0.808394 15.6299 1.86104C16.1011 2.37874 16.1759 3.24373 15.539 3.81341L14.5535 4.69497C14.5656 5.77895 14.4169 6.75083 13.9604 7.83417C13.1466 9.76518 11.9797 11.2175 10.552 12.2276C9.54287 12.9416 8.46317 13.395 7.37506 13.639C6.67176 13.7966 6.07512 13.8458 5.63612 13.8349C4.29601 13.85 3.06162 13.5666 1.96028 13.0845C1.30499 12.7976 0.82359 12.5013 0.534289 12.2778C-0.511581 11.4699 0.0838453 9.79559 1.40501 9.82944C1.65863 9.83594 1.89619 9.83222 2.11837 9.81933C1.69768 9.32056 1.47438 8.819 1.38369 8.40628C1.35219 8.26295 1.34433 8.12089 1.3572 7.98373C1.26989 7.8784 1.18851 7.76911 1.11307 7.65605C0.578511 6.85488 0.420788 6.03127 0.465062 5.32801C0.468254 5.28465 0.469453 5.26837 0.471024 5.25213L0.474776 5.21701C0.498818 5.01275 0.56444 4.82838 0.660803 4.66869C0.377714 3.76687 0.441976 2.86003 0.708677 2.00622C0.79542 1.72852 0.886741 1.51133 0.960851 1.36558C1.40241 0.497119 2.58481 0.356171 3.21815 1.09649C4.21534 2.26214 5.20031 2.95521 6.13971 3.29104C6.25625 3.3327 6.36821 3.3677 6.47532 3.39672C6.77435 1.50922 8.01677 0.380316 9.211 0.278859ZM7.80984 4.99741C7.80984 4.99741 5.33755 5.57075 2.57881 2.34598C2.57881 2.34598 1.50395 4.45998 3.3672 5.74968C3.3672 5.74968 2.75837 5.85721 2.25622 5.49913C2.25622 5.49913 2.04117 7.32626 4.2627 8.04282H3.08032C3.08032 8.04282 3.40312 9.51188 5.48099 9.83425C5.48099 9.83425 4.6212 10.9807 1.82632 10.9091C1.82632 10.9091 3.40312 12.1272 5.80379 12.0913C5.80379 12.0913 10.2462 12.3063 12.3602 7.29013C12.88 6.05654 12.826 4.88988 12.7901 4.31633L14.1516 3.09846L12.7901 3.34922C12.7901 3.34922 13.7217 2.66856 13.8295 2.02361L12.3245 2.63265C12.3245 2.63265 11.1959 1.61156 9.27889 2.02361C9.27868 2.02361 7.52338 2.38189 7.80984 4.99741Z" fill="#1DA1F2"/>
<mask id="mask0" mask-type="alpha" maskUnits="userSpaceOnUse" x="0" y="0" width="16" height="14">
<path fill-rule="evenodd" clip-rule="evenodd" d="M9.211 0.278859C10.5075 0.0239481 11.6718 0.20887 12.6524 0.682129C12.7059 0.707935 12.7575 0.733953 12.8074 0.760075L13.7683 0.371208C14.7579 -0.0292811 15.8038 0.808394 15.6299 1.86104C16.1011 2.37874 16.1759 3.24373 15.539 3.81341L14.5535 4.69497C14.5656 5.77895 14.4169 6.75083 13.9604 7.83417C13.1466 9.76518 11.9797 11.2175 10.552 12.2276C9.54287 12.9416 8.46317 13.395 7.37506 13.639C6.67176 13.7966 6.07512 13.8458 5.63612 13.8349C4.29601 13.85 3.06162 13.5666 1.96028 13.0845C1.30499 12.7976 0.82359 12.5013 0.534289 12.2778C-0.511581 11.4699 0.0838453 9.79559 1.40501 9.82944C1.65863 9.83594 1.89619 9.83222 2.11837 9.81933C1.69768 9.32056 1.47438 8.819 1.38369 8.40628C1.35219 8.26295 1.34433 8.12089 1.3572 7.98373C1.26989 7.8784 1.18851 7.76911 1.11307 7.65605C0.578511 6.85488 0.420788 6.03127 0.465062 5.32801C0.468254 5.28465 0.469453 5.26837 0.471024 5.25213L0.474776 5.21701C0.498818 5.01275 0.56444 4.82838 0.660803 4.66869C0.377714 3.76687 0.441976 2.86003 0.708677 2.00622C0.79542 1.72852 0.886741 1.51133 0.960851 1.36558C1.40241 0.497119 2.58481 0.356171 3.21815 1.09649C4.21534 2.26214 5.20031 2.95521 6.13971 3.29104C6.25625 3.3327 6.36821 3.3677 6.47532 3.39672C6.77435 1.50922 8.01677 0.380316 9.211 0.278859ZM7.80984 4.99741C7.80984 4.99741 5.33755 5.57075 2.57881 2.34598C2.57881 2.34598 1.50395 4.45998 3.3672 5.74968C3.3672 5.74968 2.75837 5.85721 2.25622 5.49913C2.25622 5.49913 2.04117 7.32626 4.2627 8.04282H3.08032C3.08032 8.04282 3.40312 9.51188 5.48099 9.83425C5.48099 9.83425 4.6212 10.9807 1.82632 10.9091C1.82632 10.9091 3.40312 12.1272 5.80379 12.0913C5.80379 12.0913 10.2462 12.3063 12.3602 7.29013C12.88 6.05654 12.826 4.88988 12.7901 4.31633L14.1516 3.09846L12.7901 3.34922C12.7901 3.34922 13.7217 2.66856 13.8295 2.02361L12.3245 2.63265C12.3245 2.63265 11.1959 1.61156 9.27889 2.02361C9.27868 2.02361 7.52338 2.38189 7.80984 4.99741Z" fill="white"/>
</mask>
<g mask="url(#mask0)">
</g>
</svg>
